<mxfile host="app.diagrams.net" modified="2021-03-02T07:53:02.618Z" agent="5.0 (Macintosh; Intel Mac OS X 10_15_7) AppleWebKit/537.36 (KHTML, like Gecko) Chrome/88.0.4324.192 Safari/537.36" etag="uA6fMhJO6pbuaKuwsRwn" version="14.4.3" type="github">
  <diagram id="vU5srcnbKdehNSqXhcLo" name="第 1 页">
    <mxGraphModel dx="2253" dy="1972" grid="1" gridSize="10" guides="1" tooltips="1" connect="1" arrows="1" fold="1" page="1" pageScale="1" pageWidth="827" pageHeight="1169" math="0" shadow="0">
      <root>
        <mxCell id="0" />
        <mxCell id="1" parent="0" />
        <mxCell id="ro8VWE5NgqI6pUmYGnJv-2" value="" style="edgeStyle=orthogonalEdgeStyle;rounded=0;orthogonalLoop=1;jettySize=auto;html=1;strokeColor=#A40000;strokeWidth=2;" edge="1" parent="1" source="ro8VWE5NgqI6pUmYGnJv-4" target="ro8VWE5NgqI6pUmYGnJv-7">
          <mxGeometry relative="1" as="geometry" />
        </mxCell>
        <mxCell id="ro8VWE5NgqI6pUmYGnJv-3" value="" style="edgeStyle=orthogonalEdgeStyle;rounded=0;orthogonalLoop=1;jettySize=auto;html=1;strokeColor=#A40000;strokeWidth=2;" edge="1" parent="1" source="ro8VWE5NgqI6pUmYGnJv-4" target="ro8VWE5NgqI6pUmYGnJv-7">
          <mxGeometry relative="1" as="geometry" />
        </mxCell>
        <mxCell id="ro8VWE5NgqI6pUmYGnJv-4" value="需求阶段" style="rounded=1;whiteSpace=wrap;html=1;strokeColor=#A40000;fontStyle=1;opacity=60;fontSize=16;strokeWidth=3;fillColor=none;fontColor=#A40000;" vertex="1" parent="1">
          <mxGeometry x="92" y="-190" width="118.11" height="47.244" as="geometry" />
        </mxCell>
        <mxCell id="ro8VWE5NgqI6pUmYGnJv-5" value="开发流程" style="text;html=1;strokeColor=none;fillColor=none;align=right;verticalAlign=middle;whiteSpace=wrap;rounded=0;fontColor=#666666;fontSize=18;" vertex="1" parent="1">
          <mxGeometry x="-70" y="-176.38" width="90" height="20" as="geometry" />
        </mxCell>
        <mxCell id="ro8VWE5NgqI6pUmYGnJv-6" value="" style="endArrow=none;dashed=1;html=1;dashPattern=1 3;strokeWidth=2;fontSize=16;fontColor=#666666;" edge="1" parent="1">
          <mxGeometry width="50" height="50" relative="1" as="geometry">
            <mxPoint x="-80" y="-120" as="sourcePoint" />
            <mxPoint x="1450" y="-120" as="targetPoint" />
          </mxGeometry>
        </mxCell>
        <mxCell id="ro8VWE5NgqI6pUmYGnJv-7" value="体验设计" style="rounded=1;whiteSpace=wrap;html=1;strokeColor=#A40000;fontStyle=1;opacity=60;fontSize=16;strokeWidth=3;fillColor=none;fontColor=#A40000;" vertex="1" parent="1">
          <mxGeometry x="240" y="-190" width="118.11" height="47.244" as="geometry" />
        </mxCell>
        <mxCell id="ro8VWE5NgqI6pUmYGnJv-8" value="开发" style="rounded=1;whiteSpace=wrap;html=1;strokeColor=#A40000;fontStyle=1;opacity=60;fontSize=16;strokeWidth=3;fillColor=none;fontColor=#A40000;" vertex="1" parent="1">
          <mxGeometry x="440" y="-190" width="118.11" height="47.244" as="geometry" />
        </mxCell>
        <mxCell id="ro8VWE5NgqI6pUmYGnJv-9" value="测试" style="rounded=1;whiteSpace=wrap;html=1;strokeColor=#A40000;fontStyle=1;opacity=60;fontSize=16;strokeWidth=3;fillColor=none;fontColor=#A40000;" vertex="1" parent="1">
          <mxGeometry x="632.32" y="-190" width="118.11" height="47.244" as="geometry" />
        </mxCell>
        <mxCell id="ro8VWE5NgqI6pUmYGnJv-10" value="部署发布" style="rounded=1;whiteSpace=wrap;html=1;strokeColor=#A40000;fontStyle=1;opacity=60;fontSize=16;strokeWidth=3;fillColor=none;fontColor=#A40000;" vertex="1" parent="1">
          <mxGeometry x="780" y="-190" width="118.11" height="47.244" as="geometry" />
        </mxCell>
        <mxCell id="ro8VWE5NgqI6pUmYGnJv-11" value="项目维护" style="rounded=1;whiteSpace=wrap;html=1;strokeColor=#A40000;fontStyle=1;opacity=60;fontSize=16;strokeWidth=3;fillColor=none;fontColor=#A40000;" vertex="1" parent="1">
          <mxGeometry x="930" y="-190" width="118.11" height="47.244" as="geometry" />
        </mxCell>
        <mxCell id="ro8VWE5NgqI6pUmYGnJv-12" value="" style="endArrow=classic;html=1;strokeColor=#A40000;strokeWidth=2;entryX=0;entryY=0.5;entryDx=0;entryDy=0;" edge="1" parent="1" target="ro8VWE5NgqI6pUmYGnJv-7">
          <mxGeometry width="50" height="50" relative="1" as="geometry">
            <mxPoint x="210.63000000000002" y="-166.88" as="sourcePoint" />
            <mxPoint x="260.52" y="-166.88" as="targetPoint" />
          </mxGeometry>
        </mxCell>
        <mxCell id="ro8VWE5NgqI6pUmYGnJv-13" value="合作对象" style="text;html=1;strokeColor=none;fillColor=none;align=right;verticalAlign=middle;whiteSpace=wrap;rounded=0;fontColor=#666666;fontSize=18;" vertex="1" parent="1">
          <mxGeometry x="-70" y="-73.27" width="90" height="20" as="geometry" />
        </mxCell>
        <mxCell id="ro8VWE5NgqI6pUmYGnJv-14" value="协同事项" style="text;html=1;strokeColor=none;fillColor=none;align=right;verticalAlign=middle;whiteSpace=wrap;rounded=0;fontColor=#666666;fontSize=18;" vertex="1" parent="1">
          <mxGeometry x="-70" y="53.46" width="90" height="20" as="geometry" />
        </mxCell>
        <mxCell id="ro8VWE5NgqI6pUmYGnJv-15" value="前端工作" style="text;html=1;strokeColor=none;fillColor=none;align=right;verticalAlign=middle;whiteSpace=wrap;rounded=0;fontColor=#666666;fontSize=18;" vertex="1" parent="1">
          <mxGeometry x="-70" y="220.65" width="90" height="20" as="geometry" />
        </mxCell>
        <mxCell id="ro8VWE5NgqI6pUmYGnJv-16" value="阶段产出" style="text;html=1;strokeColor=none;fillColor=none;align=right;verticalAlign=middle;whiteSpace=wrap;rounded=0;fontColor=#666666;fontSize=18;" vertex="1" parent="1">
          <mxGeometry x="-70" y="419.99999999999994" width="90" height="20" as="geometry" />
        </mxCell>
        <mxCell id="ro8VWE5NgqI6pUmYGnJv-17" value="产品经理" style="rounded=1;whiteSpace=wrap;html=1;strokeColor=#A40000;fontStyle=0;opacity=60;fontSize=16;strokeWidth=1;fillColor=none;fontColor=#A40000;" vertex="1" parent="1">
          <mxGeometry x="101.84" y="-93.46000000000001" width="98.425" height="33.4645" as="geometry" />
        </mxCell>
        <mxCell id="ro8VWE5NgqI6pUmYGnJv-18" value="项目经理" style="rounded=1;whiteSpace=wrap;html=1;strokeColor=#A40000;fontStyle=0;opacity=60;fontSize=16;strokeWidth=1;fillColor=none;fontColor=#A40000;" vertex="1" parent="1">
          <mxGeometry x="100.9" y="-50.00000000000001" width="98.425" height="33.4645" as="geometry" />
        </mxCell>
        <mxCell id="ro8VWE5NgqI6pUmYGnJv-19" value="设计师" style="rounded=1;whiteSpace=wrap;html=1;strokeColor=#A40000;fontStyle=0;opacity=60;fontSize=16;strokeWidth=1;fillColor=none;fontColor=#A40000;" vertex="1" parent="1">
          <mxGeometry x="249.84000000000003" y="-93.46000000000001" width="98.425" height="33.4645" as="geometry" />
        </mxCell>
        <mxCell id="ro8VWE5NgqI6pUmYGnJv-20" value="前端工程师" style="rounded=1;whiteSpace=wrap;html=1;strokeColor=#A40000;fontStyle=0;opacity=60;fontSize=16;strokeWidth=1;fillColor=none;fontColor=#A40000;" vertex="1" parent="1">
          <mxGeometry x="390" y="-93.46" width="98.425" height="33.46" as="geometry" />
        </mxCell>
        <mxCell id="ro8VWE5NgqI6pUmYGnJv-21" value="客户端工程师" style="rounded=1;whiteSpace=wrap;html=1;strokeColor=#A40000;fontStyle=0;opacity=60;fontSize=16;strokeWidth=1;fillColor=none;fontColor=#A40000;" vertex="1" parent="1">
          <mxGeometry x="390" y="-50.00000000000001" width="98.425" height="33.4645" as="geometry" />
        </mxCell>
        <mxCell id="ro8VWE5NgqI6pUmYGnJv-22" value="服务端工程师" style="rounded=1;whiteSpace=wrap;html=1;strokeColor=#A40000;fontStyle=0;opacity=60;fontSize=16;strokeWidth=1;fillColor=none;fontColor=#A40000;" vertex="1" parent="1">
          <mxGeometry x="500" y="-93.46000000000001" width="98.425" height="33.4645" as="geometry" />
        </mxCell>
        <mxCell id="ro8VWE5NgqI6pUmYGnJv-23" value="移动端工程师" style="rounded=1;whiteSpace=wrap;html=1;strokeColor=#A40000;fontStyle=0;opacity=60;fontSize=16;strokeWidth=1;fillColor=none;fontColor=#A40000;" vertex="1" parent="1">
          <mxGeometry x="500" y="-50.00000000000001" width="98.425" height="33.4645" as="geometry" />
        </mxCell>
        <mxCell id="ro8VWE5NgqI6pUmYGnJv-24" value="测试工程师" style="rounded=1;whiteSpace=wrap;html=1;strokeColor=#A40000;fontStyle=0;opacity=60;fontSize=16;strokeWidth=1;fillColor=none;fontColor=#A40000;" vertex="1" parent="1">
          <mxGeometry x="642.16" y="-93.46000000000001" width="98.425" height="33.4645" as="geometry" />
        </mxCell>
        <mxCell id="ro8VWE5NgqI6pUmYGnJv-25" value="运维工程师" style="rounded=1;whiteSpace=wrap;html=1;strokeColor=#A40000;fontStyle=0;opacity=60;fontSize=16;strokeWidth=1;fillColor=none;fontColor=#A40000;" vertex="1" parent="1">
          <mxGeometry x="789.8399999999999" y="-93.46000000000001" width="98.425" height="33.4645" as="geometry" />
        </mxCell>
        <mxCell id="ro8VWE5NgqI6pUmYGnJv-26" value="全员" style="rounded=1;whiteSpace=wrap;html=1;strokeColor=#A40000;fontStyle=0;opacity=60;fontSize=16;strokeWidth=1;fillColor=none;fontColor=#A40000;" vertex="1" parent="1">
          <mxGeometry x="939.8399999999999" y="-80.00000000000001" width="98.425" height="33.4645" as="geometry" />
        </mxCell>
        <mxCell id="ro8VWE5NgqI6pUmYGnJv-27" value="需求讨论确认" style="rounded=1;whiteSpace=wrap;html=1;strokeColor=#A40000;fontStyle=0;opacity=60;fontSize=16;strokeWidth=1;fillColor=none;fontColor=#A40000;" vertex="1" parent="1">
          <mxGeometry x="100.9" y="29.999999999999993" width="98.425" height="33.4645" as="geometry" />
        </mxCell>
        <mxCell id="ro8VWE5NgqI6pUmYGnJv-28" value="技术支持" style="rounded=1;whiteSpace=wrap;html=1;strokeColor=#A40000;fontStyle=0;opacity=60;fontSize=16;strokeWidth=1;fillColor=none;fontColor=#A40000;" vertex="1" parent="1">
          <mxGeometry x="100.9" y="73.46000000000001" width="98.425" height="33.4645" as="geometry" />
        </mxCell>
        <mxCell id="ro8VWE5NgqI6pUmYGnJv-29" value="风险评估" style="rounded=1;whiteSpace=wrap;html=1;strokeColor=#A40000;fontStyle=0;opacity=60;fontSize=16;strokeWidth=1;fillColor=none;fontColor=#A40000;" vertex="1" parent="1">
          <mxGeometry x="101.84" y="160" width="98.425" height="33.4645" as="geometry" />
        </mxCell>
        <mxCell id="ro8VWE5NgqI6pUmYGnJv-30" value="工程量评估" style="rounded=1;whiteSpace=wrap;html=1;strokeColor=#A40000;fontStyle=0;opacity=60;fontSize=16;strokeWidth=1;fillColor=none;fontColor=#A40000;" vertex="1" parent="1">
          <mxGeometry x="101.84" y="207.19" width="98.425" height="33.4645" as="geometry" />
        </mxCell>
        <mxCell id="ro8VWE5NgqI6pUmYGnJv-31" value="可行性评估" style="rounded=1;whiteSpace=wrap;html=1;strokeColor=#A40000;fontStyle=0;opacity=60;fontSize=16;strokeWidth=1;fillColor=none;fontColor=#A40000;" vertex="1" parent="1">
          <mxGeometry x="101.84" y="253.46" width="98.425" height="33.4645" as="geometry" />
        </mxCell>
        <mxCell id="ro8VWE5NgqI6pUmYGnJv-32" value="原型图" style="rounded=1;whiteSpace=wrap;html=1;strokeColor=#A40000;fontStyle=0;opacity=60;fontSize=16;strokeWidth=1;fillColor=none;fontColor=#A40000;" vertex="1" parent="1">
          <mxGeometry x="100.9" y="389.99999999999994" width="98.425" height="33.4645" as="geometry" />
        </mxCell>
        <mxCell id="ro8VWE5NgqI6pUmYGnJv-33" value="需求文档" style="rounded=1;whiteSpace=wrap;html=1;strokeColor=#A40000;fontStyle=0;opacity=60;fontSize=16;strokeWidth=1;fillColor=none;fontColor=#A40000;" vertex="1" parent="1">
          <mxGeometry x="100.9" y="436.72999999999996" width="98.425" height="33.4645" as="geometry" />
        </mxCell>
        <mxCell id="ro8VWE5NgqI6pUmYGnJv-34" value="动画优化" style="rounded=1;whiteSpace=wrap;html=1;strokeColor=#A40000;fontStyle=0;opacity=60;fontSize=16;strokeWidth=1;fillColor=none;fontColor=#A40000;" vertex="1" parent="1">
          <mxGeometry x="249.84" y="29.999999999999993" width="98.425" height="33.4645" as="geometry" />
        </mxCell>
        <mxCell id="ro8VWE5NgqI6pUmYGnJv-35" value="交互验证" style="rounded=1;whiteSpace=wrap;html=1;strokeColor=#A40000;fontStyle=0;opacity=60;fontSize=16;strokeWidth=1;fillColor=none;fontColor=#A40000;" vertex="1" parent="1">
          <mxGeometry x="249.84000000000003" y="73.46" width="98.425" height="33.4645" as="geometry" />
        </mxCell>
        <mxCell id="ro8VWE5NgqI6pUmYGnJv-36" value="设计稿" style="rounded=1;whiteSpace=wrap;html=1;strokeColor=#A40000;fontStyle=0;opacity=60;fontSize=16;strokeWidth=1;fillColor=none;fontColor=#A40000;" vertex="1" parent="1">
          <mxGeometry x="249.84" y="389.99999999999994" width="98.425" height="33.4645" as="geometry" />
        </mxCell>
        <mxCell id="ro8VWE5NgqI6pUmYGnJv-37" value="前端规范" style="rounded=1;whiteSpace=wrap;html=1;strokeColor=#A40000;fontStyle=0;opacity=60;fontSize=16;strokeWidth=1;fillColor=none;fontColor=#A40000;" vertex="1" parent="1">
          <mxGeometry x="390" y="160" width="98.425" height="33.4645" as="geometry" />
        </mxCell>
        <mxCell id="ro8VWE5NgqI6pUmYGnJv-38" value="技术架构" style="rounded=1;whiteSpace=wrap;html=1;strokeColor=#A40000;fontStyle=0;opacity=60;fontSize=16;strokeWidth=1;fillColor=none;fontColor=#A40000;" vertex="1" parent="1">
          <mxGeometry x="390" y="207.19" width="98.425" height="33.4645" as="geometry" />
        </mxCell>
        <mxCell id="ro8VWE5NgqI6pUmYGnJv-39" value="API设计" style="rounded=1;whiteSpace=wrap;html=1;strokeColor=#A40000;fontStyle=0;opacity=60;fontSize=16;strokeWidth=1;fillColor=none;fontColor=#A40000;" vertex="1" parent="1">
          <mxGeometry x="449.84000000000003" y="29.999999999999993" width="98.425" height="33.4645" as="geometry" />
        </mxCell>
        <mxCell id="ro8VWE5NgqI6pUmYGnJv-40" value="接口联调" style="rounded=1;whiteSpace=wrap;html=1;strokeColor=#A40000;fontStyle=0;opacity=60;fontSize=16;strokeWidth=1;fillColor=none;fontColor=#A40000;" vertex="1" parent="1">
          <mxGeometry x="449.84" y="73.46" width="98.425" height="33.4645" as="geometry" />
        </mxCell>
        <mxCell id="ro8VWE5NgqI6pUmYGnJv-41" value="性能方案" style="rounded=1;whiteSpace=wrap;html=1;strokeColor=#A40000;fontStyle=0;opacity=60;fontSize=16;strokeWidth=1;fillColor=none;fontColor=#A40000;" vertex="1" parent="1">
          <mxGeometry x="500" y="160" width="98.425" height="33.4645" as="geometry" />
        </mxCell>
        <mxCell id="ro8VWE5NgqI6pUmYGnJv-42" value="任务拆解" style="rounded=1;whiteSpace=wrap;html=1;strokeColor=#A40000;fontStyle=0;opacity=60;fontSize=16;strokeWidth=1;fillColor=none;fontColor=#A40000;" vertex="1" parent="1">
          <mxGeometry x="500" y="207.19" width="98.425" height="33.4645" as="geometry" />
        </mxCell>
        <mxCell id="ro8VWE5NgqI6pUmYGnJv-43" value="数据安全" style="rounded=1;whiteSpace=wrap;html=1;strokeColor=#A40000;fontStyle=0;opacity=60;fontSize=16;strokeWidth=1;fillColor=none;fontColor=#A40000;" vertex="1" parent="1">
          <mxGeometry x="390" y="253.45999999999998" width="98.425" height="33.4645" as="geometry" />
        </mxCell>
        <mxCell id="ro8VWE5NgqI6pUmYGnJv-44" value="项目源码" style="rounded=1;whiteSpace=wrap;html=1;strokeColor=#A40000;fontStyle=0;opacity=60;fontSize=16;strokeWidth=1;fillColor=none;fontColor=#A40000;" vertex="1" parent="1">
          <mxGeometry x="390" y="389.99999999999994" width="98.425" height="33.4645" as="geometry" />
        </mxCell>
        <mxCell id="ro8VWE5NgqI6pUmYGnJv-45" value="组件库" style="rounded=1;whiteSpace=wrap;html=1;strokeColor=#A40000;fontStyle=0;opacity=60;fontSize=16;strokeWidth=1;fillColor=none;fontColor=#A40000;" vertex="1" parent="1">
          <mxGeometry x="500" y="389.99999999999994" width="98.425" height="33.4645" as="geometry" />
        </mxCell>
        <mxCell id="ro8VWE5NgqI6pUmYGnJv-46" value="技术工具" style="rounded=1;whiteSpace=wrap;html=1;strokeColor=#A40000;fontStyle=0;opacity=60;fontSize=16;strokeWidth=1;fillColor=none;fontColor=#A40000;" vertex="1" parent="1">
          <mxGeometry x="500" y="253.45999999999998" width="98.425" height="33.4645" as="geometry" />
        </mxCell>
        <mxCell id="ro8VWE5NgqI6pUmYGnJv-47" value="技术分享" style="rounded=1;whiteSpace=wrap;html=1;strokeColor=#A40000;fontStyle=0;opacity=60;fontSize=16;strokeWidth=1;fillColor=none;fontColor=#A40000;" vertex="1" parent="1">
          <mxGeometry x="1089.8400000000001" y="159.99999999999994" width="98.425" height="33.4645" as="geometry" />
        </mxCell>
        <mxCell id="ro8VWE5NgqI6pUmYGnJv-48" value="代码质量" style="rounded=1;whiteSpace=wrap;html=1;strokeColor=#A40000;fontStyle=0;opacity=60;fontSize=16;strokeWidth=1;fillColor=none;fontColor=#A40000;" vertex="1" parent="1">
          <mxGeometry x="390" y="300" width="98.425" height="33.4645" as="geometry" />
        </mxCell>
        <mxCell id="ro8VWE5NgqI6pUmYGnJv-49" value="用户体验" style="rounded=1;whiteSpace=wrap;html=1;strokeColor=#A40000;fontStyle=0;opacity=60;fontSize=16;strokeWidth=1;fillColor=none;fontColor=#A40000;" vertex="1" parent="1">
          <mxGeometry x="500" y="300" width="98.425" height="33.4645" as="geometry" />
        </mxCell>
        <mxCell id="ro8VWE5NgqI6pUmYGnJv-50" value="测试用例" style="rounded=1;whiteSpace=wrap;html=1;strokeColor=#A40000;fontStyle=0;opacity=60;fontSize=16;strokeWidth=1;fillColor=none;fontColor=#A40000;" vertex="1" parent="1">
          <mxGeometry x="642.16" y="29.999999999999993" width="98.425" height="33.4645" as="geometry" />
        </mxCell>
        <mxCell id="ro8VWE5NgqI6pUmYGnJv-51" value="场景复现" style="rounded=1;whiteSpace=wrap;html=1;strokeColor=#A40000;fontStyle=0;opacity=60;fontSize=16;strokeWidth=1;fillColor=none;fontColor=#A40000;" vertex="1" parent="1">
          <mxGeometry x="642.16" y="73.46" width="98.425" height="33.4645" as="geometry" />
        </mxCell>
        <mxCell id="ro8VWE5NgqI6pUmYGnJv-52" value="bug修复" style="rounded=1;whiteSpace=wrap;html=1;strokeColor=#A40000;fontStyle=0;opacity=60;fontSize=16;strokeWidth=1;fillColor=none;fontColor=#A40000;" vertex="1" parent="1">
          <mxGeometry x="642.16" y="160" width="98.425" height="33.4645" as="geometry" />
        </mxCell>
        <mxCell id="ro8VWE5NgqI6pUmYGnJv-53" value="产品反馈" style="rounded=1;whiteSpace=wrap;html=1;strokeColor=#A40000;fontStyle=0;opacity=60;fontSize=16;strokeWidth=1;fillColor=none;fontColor=#A40000;" vertex="1" parent="1">
          <mxGeometry x="642.16" y="207.19" width="98.425" height="33.4645" as="geometry" />
        </mxCell>
        <mxCell id="ro8VWE5NgqI6pUmYGnJv-54" value="测试报告" style="rounded=1;whiteSpace=wrap;html=1;strokeColor=#A40000;fontStyle=0;opacity=60;fontSize=16;strokeWidth=1;fillColor=none;fontColor=#A40000;" vertex="1" parent="1">
          <mxGeometry x="642.1600000000001" y="389.99999999999994" width="98.425" height="33.4645" as="geometry" />
        </mxCell>
        <mxCell id="ro8VWE5NgqI6pUmYGnJv-55" value="部署文档" style="rounded=1;whiteSpace=wrap;html=1;strokeColor=#A40000;fontStyle=0;opacity=60;fontSize=16;strokeWidth=1;fillColor=none;fontColor=#A40000;" vertex="1" parent="1">
          <mxGeometry x="789.8400000000001" y="389.99999999999994" width="98.425" height="33.4645" as="geometry" />
        </mxCell>
        <mxCell id="ro8VWE5NgqI6pUmYGnJv-56" value="部署架构" style="rounded=1;whiteSpace=wrap;html=1;strokeColor=#A40000;fontStyle=0;opacity=60;fontSize=16;strokeWidth=1;fillColor=none;fontColor=#A40000;" vertex="1" parent="1">
          <mxGeometry x="789.8400000000001" y="160" width="98.425" height="33.4645" as="geometry" />
        </mxCell>
        <mxCell id="ro8VWE5NgqI6pUmYGnJv-57" value="部署方案" style="rounded=1;whiteSpace=wrap;html=1;strokeColor=#A40000;fontStyle=0;opacity=60;fontSize=16;strokeWidth=1;fillColor=none;fontColor=#A40000;" vertex="1" parent="1">
          <mxGeometry x="789.8400000000001" y="29.999999999999986" width="98.425" height="33.4645" as="geometry" />
        </mxCell>
        <mxCell id="ro8VWE5NgqI6pUmYGnJv-58" value="灰度机制" style="rounded=1;whiteSpace=wrap;html=1;strokeColor=#A40000;fontStyle=0;opacity=60;fontSize=16;strokeWidth=1;fillColor=none;fontColor=#A40000;" vertex="1" parent="1">
          <mxGeometry x="789.8400000000001" y="207.19" width="98.425" height="33.4645" as="geometry" />
        </mxCell>
        <mxCell id="ro8VWE5NgqI6pUmYGnJv-59" value="应急方案" style="rounded=1;whiteSpace=wrap;html=1;strokeColor=#A40000;fontStyle=0;opacity=60;fontSize=16;strokeWidth=1;fillColor=none;fontColor=#A40000;" vertex="1" parent="1">
          <mxGeometry x="939.8400000000001" y="160" width="98.425" height="33.4645" as="geometry" />
        </mxCell>
        <mxCell id="ro8VWE5NgqI6pUmYGnJv-60" value="用户反馈" style="rounded=1;whiteSpace=wrap;html=1;strokeColor=#A40000;fontStyle=0;opacity=60;fontSize=16;strokeWidth=1;fillColor=none;fontColor=#A40000;" vertex="1" parent="1">
          <mxGeometry x="940" y="207.19" width="98.425" height="33.4645" as="geometry" />
        </mxCell>
        <mxCell id="ro8VWE5NgqI6pUmYGnJv-61" value="运营数据" style="rounded=1;whiteSpace=wrap;html=1;strokeColor=#A40000;fontStyle=0;opacity=60;fontSize=16;strokeWidth=1;fillColor=none;fontColor=#A40000;" vertex="1" parent="1">
          <mxGeometry x="939.8400000000001" y="389.99999999999994" width="98.425" height="33.4645" as="geometry" />
        </mxCell>
        <mxCell id="ro8VWE5NgqI6pUmYGnJv-62" value="日志报表" style="rounded=1;whiteSpace=wrap;html=1;strokeColor=#A40000;fontStyle=0;opacity=60;fontSize=16;strokeWidth=1;fillColor=none;fontColor=#A40000;" vertex="1" parent="1">
          <mxGeometry x="939.8400000000001" y="436.72999999999996" width="98.425" height="33.4645" as="geometry" />
        </mxCell>
        <mxCell id="ro8VWE5NgqI6pUmYGnJv-63" value="运营细节" style="rounded=1;whiteSpace=wrap;html=1;strokeColor=#A40000;fontStyle=0;opacity=60;fontSize=16;strokeWidth=1;fillColor=none;fontColor=#A40000;" vertex="1" parent="1">
          <mxGeometry x="939.8400000000001" y="29.999999999999986" width="98.425" height="33.4645" as="geometry" />
        </mxCell>
        <mxCell id="ro8VWE5NgqI6pUmYGnJv-64" value="" style="endArrow=none;dashed=1;html=1;dashPattern=1 3;strokeWidth=2;fontSize=16;fontColor=#666666;" edge="1" parent="1">
          <mxGeometry width="50" height="50" relative="1" as="geometry">
            <mxPoint x="-80" y="5" as="sourcePoint" />
            <mxPoint x="1450" y="5" as="targetPoint" />
          </mxGeometry>
        </mxCell>
        <mxCell id="ro8VWE5NgqI6pUmYGnJv-65" value="" style="endArrow=none;dashed=1;html=1;dashPattern=1 3;strokeWidth=2;fontSize=16;fontColor=#666666;" edge="1" parent="1">
          <mxGeometry width="50" height="50" relative="1" as="geometry">
            <mxPoint x="-79.79" y="134" as="sourcePoint" />
            <mxPoint x="1450" y="134" as="targetPoint" />
          </mxGeometry>
        </mxCell>
        <mxCell id="ro8VWE5NgqI6pUmYGnJv-66" value="" style="endArrow=none;dashed=1;html=1;dashPattern=1 3;strokeWidth=2;fontSize=16;fontColor=#666666;" edge="1" parent="1">
          <mxGeometry width="50" height="50" relative="1" as="geometry">
            <mxPoint x="-79.99999999999996" y="362" as="sourcePoint" />
            <mxPoint x="1450" y="360" as="targetPoint" />
          </mxGeometry>
        </mxCell>
        <mxCell id="ro8VWE5NgqI6pUmYGnJv-67" value="" style="endArrow=classic;html=1;strokeColor=#A40000;strokeWidth=2;exitX=1;exitY=0.5;exitDx=0;exitDy=0;entryX=0;entryY=0.5;entryDx=0;entryDy=0;" edge="1" parent="1" source="ro8VWE5NgqI6pUmYGnJv-7" target="ro8VWE5NgqI6pUmYGnJv-8">
          <mxGeometry width="50" height="50" relative="1" as="geometry">
            <mxPoint x="360" y="-140" as="sourcePoint" />
            <mxPoint x="410" y="-190" as="targetPoint" />
          </mxGeometry>
        </mxCell>
        <mxCell id="ro8VWE5NgqI6pUmYGnJv-68" value="" style="endArrow=classic;html=1;strokeColor=#A40000;strokeWidth=2;" edge="1" parent="1">
          <mxGeometry width="50" height="50" relative="1" as="geometry">
            <mxPoint x="558.11" y="-166.88" as="sourcePoint" />
            <mxPoint x="630" y="-166.88" as="targetPoint" />
          </mxGeometry>
        </mxCell>
        <mxCell id="ro8VWE5NgqI6pUmYGnJv-69" value="" style="endArrow=classic;html=1;strokeColor=#A40000;strokeWidth=2;exitX=1;exitY=0.5;exitDx=0;exitDy=0;entryX=0;entryY=0.5;entryDx=0;entryDy=0;" edge="1" parent="1" source="ro8VWE5NgqI6pUmYGnJv-9" target="ro8VWE5NgqI6pUmYGnJv-10">
          <mxGeometry width="50" height="50" relative="1" as="geometry">
            <mxPoint x="750" y="-200" as="sourcePoint" />
            <mxPoint x="790" y="-220" as="targetPoint" />
          </mxGeometry>
        </mxCell>
        <mxCell id="ro8VWE5NgqI6pUmYGnJv-70" value="" style="endArrow=classic;html=1;strokeColor=#A40000;strokeWidth=2;exitX=1;exitY=0.5;exitDx=0;exitDy=0;entryX=0;entryY=0.5;entryDx=0;entryDy=0;" edge="1" parent="1" source="ro8VWE5NgqI6pUmYGnJv-10" target="ro8VWE5NgqI6pUmYGnJv-11">
          <mxGeometry width="50" height="50" relative="1" as="geometry">
            <mxPoint x="900" y="-200" as="sourcePoint" />
            <mxPoint x="950" y="-250" as="targetPoint" />
          </mxGeometry>
        </mxCell>
        <mxCell id="ro8VWE5NgqI6pUmYGnJv-71" value="" style="endArrow=none;dashed=1;html=1;dashPattern=1 3;strokeWidth=1;" edge="1" parent="1">
          <mxGeometry width="50" height="50" relative="1" as="geometry">
            <mxPoint x="225" y="490" as="sourcePoint" />
            <mxPoint x="225" y="-210" as="targetPoint" />
          </mxGeometry>
        </mxCell>
        <mxCell id="ro8VWE5NgqI6pUmYGnJv-72" value="" style="endArrow=none;dashed=1;html=1;dashPattern=1 3;strokeWidth=1;" edge="1" parent="1">
          <mxGeometry width="50" height="50" relative="1" as="geometry">
            <mxPoint x="371" y="491" as="sourcePoint" />
            <mxPoint x="371" y="-209" as="targetPoint" />
          </mxGeometry>
        </mxCell>
        <mxCell id="ro8VWE5NgqI6pUmYGnJv-73" value="" style="endArrow=none;dashed=1;html=1;dashPattern=1 3;strokeWidth=1;" edge="1" parent="1">
          <mxGeometry width="50" height="50" relative="1" as="geometry">
            <mxPoint x="616" y="490" as="sourcePoint" />
            <mxPoint x="616" y="-210" as="targetPoint" />
          </mxGeometry>
        </mxCell>
        <mxCell id="ro8VWE5NgqI6pUmYGnJv-74" value="" style="endArrow=none;dashed=1;html=1;dashPattern=1 3;strokeWidth=1;" edge="1" parent="1">
          <mxGeometry width="50" height="50" relative="1" as="geometry">
            <mxPoint x="913" y="490" as="sourcePoint" />
            <mxPoint x="913" y="-210" as="targetPoint" />
          </mxGeometry>
        </mxCell>
        <mxCell id="ro8VWE5NgqI6pUmYGnJv-75" value="" style="endArrow=none;dashed=1;html=1;dashPattern=1 3;strokeWidth=1;" edge="1" parent="1">
          <mxGeometry width="50" height="50" relative="1" as="geometry">
            <mxPoint x="765" y="490" as="sourcePoint" />
            <mxPoint x="765" y="-210" as="targetPoint" />
          </mxGeometry>
        </mxCell>
        <mxCell id="ro8VWE5NgqI6pUmYGnJv-76" value="设计规范" style="rounded=1;whiteSpace=wrap;html=1;strokeColor=#A40000;fontStyle=0;opacity=60;fontSize=16;strokeWidth=1;fillColor=none;fontColor=#A40000;" vertex="1" parent="1">
          <mxGeometry x="249.84000000000003" y="436.73" width="98.425" height="33.4645" as="geometry" />
        </mxCell>
        <mxCell id="ro8VWE5NgqI6pUmYGnJv-77" value="项目文档" style="rounded=1;whiteSpace=wrap;html=1;strokeColor=#A40000;fontStyle=0;opacity=60;fontSize=16;strokeWidth=1;fillColor=none;fontColor=#A40000;" vertex="1" parent="1">
          <mxGeometry x="390" y="436.72999999999996" width="98.425" height="33.4645" as="geometry" />
        </mxCell>
        <mxCell id="ro8VWE5NgqI6pUmYGnJv-78" value="服务端工程师" style="rounded=1;whiteSpace=wrap;html=1;strokeColor=#A40000;fontStyle=0;opacity=60;fontSize=16;strokeWidth=1;fillColor=none;fontColor=#A40000;" vertex="1" parent="1">
          <mxGeometry x="789.8399999999999" y="-50.00000000000001" width="98.425" height="33.4645" as="geometry" />
        </mxCell>
        <mxCell id="ro8VWE5NgqI6pUmYGnJv-79" value="总结沉淀" style="rounded=1;whiteSpace=wrap;html=1;strokeColor=#A40000;fontStyle=1;opacity=60;fontSize=16;strokeWidth=3;fillColor=none;fontColor=#A40000;" vertex="1" parent="1">
          <mxGeometry x="1080" y="-190" width="118.11" height="47.244" as="geometry" />
        </mxCell>
        <mxCell id="ro8VWE5NgqI6pUmYGnJv-80" value="项目下线" style="rounded=1;whiteSpace=wrap;html=1;strokeColor=#A40000;fontStyle=1;opacity=60;fontSize=16;strokeWidth=3;fillColor=none;fontColor=#A40000;" vertex="1" parent="1">
          <mxGeometry x="1230" y="-190" width="118.11" height="47.244" as="geometry" />
        </mxCell>
        <mxCell id="ro8VWE5NgqI6pUmYGnJv-81" value="" style="endArrow=classic;html=1;strokeColor=#A40000;strokeWidth=2;exitX=1;exitY=0.5;exitDx=0;exitDy=0;entryX=0;entryY=0.5;entryDx=0;entryDy=0;" edge="1" parent="1">
          <mxGeometry width="50" height="50" relative="1" as="geometry">
            <mxPoint x="1048.1100000000001" y="-166.87799999999993" as="sourcePoint" />
            <mxPoint x="1080" y="-166.87799999999993" as="targetPoint" />
          </mxGeometry>
        </mxCell>
        <mxCell id="ro8VWE5NgqI6pUmYGnJv-82" value="" style="endArrow=classic;html=1;strokeColor=#A40000;strokeWidth=2;exitX=1;exitY=0.5;exitDx=0;exitDy=0;entryX=0;entryY=0.5;entryDx=0;entryDy=0;" edge="1" parent="1">
          <mxGeometry width="50" height="50" relative="1" as="geometry">
            <mxPoint x="1198.1100000000001" y="-166.87799999999993" as="sourcePoint" />
            <mxPoint x="1230" y="-166.87799999999993" as="targetPoint" />
          </mxGeometry>
        </mxCell>
        <mxCell id="ro8VWE5NgqI6pUmYGnJv-83" value="" style="endArrow=none;dashed=1;html=1;dashPattern=1 3;strokeWidth=1;" edge="1" parent="1">
          <mxGeometry width="50" height="50" relative="1" as="geometry">
            <mxPoint x="1063" y="490" as="sourcePoint" />
            <mxPoint x="1063" y="-210" as="targetPoint" />
          </mxGeometry>
        </mxCell>
        <mxCell id="ro8VWE5NgqI6pUmYGnJv-84" value="" style="endArrow=none;dashed=1;html=1;dashPattern=1 3;strokeWidth=1;" edge="1" parent="1">
          <mxGeometry width="50" height="50" relative="1" as="geometry">
            <mxPoint x="1216" y="490" as="sourcePoint" />
            <mxPoint x="1216" y="-210" as="targetPoint" />
          </mxGeometry>
        </mxCell>
        <mxCell id="ro8VWE5NgqI6pUmYGnJv-85" value="运维工程师" style="rounded=1;whiteSpace=wrap;html=1;strokeColor=#A40000;fontStyle=0;opacity=60;fontSize=16;strokeWidth=1;fillColor=none;fontColor=#A40000;" vertex="1" parent="1">
          <mxGeometry x="1241" y="-93.46000000000001" width="98.425" height="33.4645" as="geometry" />
        </mxCell>
        <mxCell id="ro8VWE5NgqI6pUmYGnJv-86" value="服务端工程师" style="rounded=1;whiteSpace=wrap;html=1;strokeColor=#A40000;fontStyle=0;opacity=60;fontSize=16;strokeWidth=1;fillColor=none;fontColor=#A40000;" vertex="1" parent="1">
          <mxGeometry x="1241" y="-50.000000000000014" width="98.425" height="33.4645" as="geometry" />
        </mxCell>
        <mxCell id="ro8VWE5NgqI6pUmYGnJv-87" value="全员" style="rounded=1;whiteSpace=wrap;html=1;strokeColor=#A40000;fontStyle=0;opacity=60;fontSize=16;strokeWidth=1;fillColor=none;fontColor=#A40000;" vertex="1" parent="1">
          <mxGeometry x="1089.84" y="-80.00000000000001" width="98.425" height="33.4645" as="geometry" />
        </mxCell>
        <mxCell id="ro8VWE5NgqI6pUmYGnJv-88" value="项目总结" style="rounded=1;whiteSpace=wrap;html=1;strokeColor=#A40000;fontStyle=0;opacity=60;fontSize=16;strokeWidth=1;fillColor=none;fontColor=#A40000;" vertex="1" parent="1">
          <mxGeometry x="1089.8400000000001" y="29.999999999999986" width="98.425" height="33.4645" as="geometry" />
        </mxCell>
        <mxCell id="ro8VWE5NgqI6pUmYGnJv-89" value="case study" style="rounded=1;whiteSpace=wrap;html=1;strokeColor=#A40000;fontStyle=0;opacity=60;fontSize=16;strokeWidth=1;fillColor=none;fontColor=#A40000;" vertex="1" parent="1">
          <mxGeometry x="1089.8400000000001" y="207.19" width="98.425" height="33.4645" as="geometry" />
        </mxCell>
        <mxCell id="ro8VWE5NgqI6pUmYGnJv-90" value="技术文档" style="rounded=1;whiteSpace=wrap;html=1;strokeColor=#A40000;fontStyle=0;opacity=60;fontSize=16;strokeWidth=1;fillColor=none;fontColor=#A40000;" vertex="1" parent="1">
          <mxGeometry x="1089.8400000000001" y="389.99999999999994" width="98.425" height="33.4645" as="geometry" />
        </mxCell>
        <mxCell id="ro8VWE5NgqI6pUmYGnJv-91" value="下线流程" style="rounded=1;whiteSpace=wrap;html=1;strokeColor=#A40000;fontStyle=0;opacity=60;fontSize=16;strokeWidth=1;fillColor=none;fontColor=#A40000;" vertex="1" parent="1">
          <mxGeometry x="1241.0000000000002" y="29.999999999999986" width="98.425" height="33.4645" as="geometry" />
        </mxCell>
        <mxCell id="ro8VWE5NgqI6pUmYGnJv-92" value="下线方案" style="rounded=1;whiteSpace=wrap;html=1;strokeColor=#A40000;fontStyle=0;opacity=60;fontSize=16;strokeWidth=1;fillColor=none;fontColor=#A40000;" vertex="1" parent="1">
          <mxGeometry x="1241.0000000000002" y="160" width="98.425" height="33.4645" as="geometry" />
        </mxCell>
        <mxCell id="ro8VWE5NgqI6pUmYGnJv-93" value="技术文档" style="rounded=1;whiteSpace=wrap;html=1;strokeColor=#A40000;fontStyle=0;opacity=60;fontSize=16;strokeWidth=1;fillColor=none;fontColor=#A40000;" vertex="1" parent="1">
          <mxGeometry x="1239.8400000000001" y="389.99999999999994" width="98.425" height="33.4645" as="geometry" />
        </mxCell>
      </root>
    </mxGraphModel>
  </diagram>
</mxfile>
